<svg width="95" height="90" viewBox="0 0 95 90" fill="none" xmlns="http://www.w3.org/2000/svg">
<path d="M20.5835 19.607C18.5671 25.4041 18.474 31.6968 20.3181 37.551C22.1622 43.4051 25.845 48.5085 30.8199 52.1033C35.7947 55.6981 41.7962 57.5927 47.9333 57.5057C54.0704 57.4188 60.0158 55.3549 64.8868 51.6206L60.2562 45.5805C56.6847 48.3186 52.3254 49.8318 47.8255 49.8956C43.3256 49.9593 38.9252 48.5702 35.2775 45.9344C31.6298 43.2986 28.9295 39.5567 27.5774 35.2643C26.2252 30.9719 26.2935 26.3579 27.7719 22.1073L20.5835 19.607Z" fill="#211EAA"/>
<path d="M67.7023 8.80625C64.4659 5.56984 60.4983 3.15961 56.1345 1.77904C51.7707 0.398463 47.1388 0.0880796 42.6298 0.874088C38.1208 1.6601 33.8672 3.51942 30.2279 6.2951C26.5886 9.07077 23.6705 12.6813 21.7201 16.8219L23.787 17.7955C25.5812 13.9865 28.2656 10.6651 31.6134 8.11171C34.9612 5.55832 38.8743 3.84789 43.0222 3.12483C47.1701 2.40177 51.431 2.6873 55.4454 3.95731C59.4597 5.22732 63.1096 7.44454 66.0868 10.4218L67.7023 8.80625Z" fill="#211EAA"/>
<path d="M65.5018 11.0071C62.6185 8.1237 59.0837 5.97641 55.1959 4.74644C51.3082 3.51648 47.1816 3.23996 43.1645 3.94022C39.1474 4.64048 35.3577 6.29697 32.1155 8.76984C28.8732 11.2427 26.2735 14.4594 24.5358 18.1483L26.3772 19.0157C27.9757 15.6222 30.3672 12.6631 33.3499 10.3883C36.3325 8.11344 39.8186 6.58961 43.514 5.94543C47.2094 5.30124 51.0056 5.55562 54.582 6.68709C58.1584 7.81855 61.4101 9.79389 64.0625 12.4463L65.5018 11.0071Z" fill="#358F27"/>
<path d="M63.5457 12.9632C60.9762 10.3936 57.8261 8.48007 54.3615 7.38398C50.897 6.28789 47.2195 6.04146 43.6396 6.66551C40.0598 7.28955 36.6826 8.76574 33.7932 10.9695C30.9039 13.1732 28.5871 16.0397 27.0386 19.3271L28.6795 20.1001C30.1041 17.076 32.2353 14.439 34.8933 12.4117C37.5512 10.3845 40.658 9.02653 43.9511 8.45246C47.2443 7.87839 50.6273 8.10508 53.8144 9.1134C57.0016 10.1217 59.8993 11.882 62.2631 14.2458L63.5457 12.9632Z" fill="#211EAA"/>
<path d="M5.33 82.3104C4.33507 82.3104 3.47133 82.1027 2.7388 81.6872C2.00627 81.2717 1.4432 80.6759 1.0496 79.8996C0.656 79.1124 0.4592 78.1885 0.4592 77.128C0.4592 75.9691 0.694267 74.9577 1.1644 74.094C1.63453 73.2303 2.30147 72.5633 3.1652 72.0932C4.02893 71.6231 5.04027 71.388 6.1992 71.388C6.60373 71.388 7.0356 71.4208 7.4948 71.4864C7.96493 71.5411 8.364 71.6012 8.692 71.6668C9.03093 71.7324 9.24413 71.7761 9.3316 71.798L9.43 72.0112C9.40813 72.0877 9.36987 72.2681 9.3152 72.5524C9.26053 72.8257 9.2004 73.192 9.1348 73.6512C9.08013 74.1104 9.0364 74.5969 9.0036 75.1108L7.38 75.2256C7.38 75.1709 7.38547 75.0671 7.3964 74.914C7.40733 74.75 7.4128 74.5641 7.4128 74.3564C7.4128 73.8863 7.2652 73.5419 6.97 73.3232C6.68573 73.0936 6.23747 72.9788 5.6252 72.9788C4.7724 72.9788 4.12187 73.2795 3.6736 73.8808C3.23627 74.4821 3.0176 75.3787 3.0176 76.5704C3.0176 77.9043 3.25813 78.9375 3.7392 79.67C4.22027 80.4025 4.8872 80.7688 5.74 80.7688C6.3304 80.7688 6.7896 80.5939 7.1176 80.244C7.4456 79.8832 7.6752 79.3037 7.8064 78.5056L9.43 78.3908C9.3972 78.5876 9.33707 79.0085 9.2496 79.6536C9.17307 80.2877 9.12387 80.8891 9.102 81.4576L8.938 81.6544C8.938 81.6653 8.75213 81.7309 8.3804 81.8512C8.0196 81.9605 7.57133 82.0644 7.0356 82.1628C6.49987 82.2612 5.93133 82.3104 5.33 82.3104ZM14.6975 77.374C14.6975 76.9039 14.5717 76.5431 14.3203 76.2916C14.0797 76.0292 13.7408 75.898 13.3035 75.898C13.0301 75.898 12.7076 75.9745 12.3359 76.1276C11.9751 76.2697 11.6525 76.4501 11.3683 76.6688L11.2371 76.5868L10.9255 75.6028C11.5705 75.242 12.1828 74.9413 12.7623 74.7008C13.3417 74.4603 13.7408 74.34 13.9595 74.34C14.8232 74.34 15.4956 74.5368 15.9767 74.9304C16.4687 75.324 16.7147 75.8761 16.7147 76.5868C16.7147 76.8164 16.6655 77.3139 16.5671 78.0792C16.4468 79.1397 16.3867 79.7629 16.3867 79.9488C16.3867 80.1565 16.4359 80.3205 16.5343 80.4408C16.6436 80.5501 16.7857 80.6048 16.9607 80.6048C17.1903 80.6048 17.4527 80.5119 17.7479 80.326L17.9939 80.6704C17.7752 81.0749 17.5128 81.4357 17.2067 81.7528C16.9115 82.0589 16.6436 82.2448 16.4031 82.3104C15.9111 82.3104 15.5229 82.2065 15.2387 81.9988C14.9653 81.7801 14.8013 81.4631 14.7467 81.0476L14.6319 80.9984C14.2492 81.3811 13.8939 81.6872 13.5659 81.9168C13.2379 82.1355 12.9864 82.2448 12.8115 82.2448C12.396 82.2448 12.0133 82.1409 11.6635 81.9332C11.3245 81.7255 11.0567 81.4412 10.8599 81.0804C10.6631 80.7087 10.5647 80.2987 10.5647 79.8504C10.5647 79.5005 10.6521 79.2053 10.8271 78.9648C11.002 78.7133 11.2316 78.5548 11.5159 78.4892L14.6811 77.7512L14.6975 77.374ZM12.9263 79.1288C12.6639 79.2053 12.5327 79.3803 12.5327 79.6536C12.5327 79.9707 12.6147 80.2167 12.7787 80.3916C12.9536 80.5665 13.1941 80.654 13.5003 80.654C13.6533 80.654 13.8283 80.6157 14.0251 80.5392C14.2219 80.4517 14.4132 80.3369 14.5991 80.1948L14.6319 78.6532L12.9263 79.1288ZM18.6747 81.1624C18.9918 81.1405 19.205 81.0531 19.3143 80.9C19.4346 80.7469 19.4947 80.4627 19.4947 80.0472V76.8C19.4947 76.4173 19.4455 76.1604 19.3471 76.0292C19.2597 75.898 19.0793 75.8324 18.8059 75.8324L18.4943 75.8488L18.4123 75.734L18.4943 74.8812C19.0957 74.7937 19.7025 74.6899 20.3147 74.5696C20.9379 74.4493 21.337 74.3728 21.5119 74.34L21.6595 74.4876C21.6377 74.5751 21.6049 74.7773 21.5611 75.0944C21.5283 75.4115 21.5065 75.7176 21.4955 76.0128L21.5939 76.0784C21.9329 75.5755 22.3046 75.1819 22.7091 74.8976C23.1246 74.6024 23.5182 74.4548 23.8899 74.4548C24.0211 74.4548 24.1414 74.4657 24.2507 74.4876C24.3601 74.4985 24.4311 74.5095 24.4639 74.5204L24.5295 74.6516C24.4967 74.8375 24.4421 75.2475 24.3655 75.8816C24.289 76.5048 24.2343 77.0952 24.2015 77.6528L23.1191 77.7184C23.1191 77.1936 23.0863 76.8492 23.0207 76.6852C22.9661 76.5103 22.8458 76.4228 22.6599 76.4228C22.485 76.4228 22.2991 76.4884 22.1023 76.6196C21.9165 76.7399 21.7415 76.9093 21.5775 77.128C21.5557 77.4232 21.5229 77.9207 21.4791 78.6204C21.4463 79.3092 21.4245 79.8613 21.4135 80.2768C21.4135 80.5611 21.4573 80.7579 21.5447 80.8672C21.6431 80.9765 21.8126 81.0312 22.0531 81.0312C22.2281 81.0312 22.3975 81.0257 22.5615 81.0148C22.7255 80.9929 22.8349 80.9765 22.8895 80.9656L22.9387 81.064L22.7583 82.1792C22.6053 82.1683 22.3155 82.1519 21.8891 82.13C21.4737 82.1191 21.0473 82.1136 20.6099 82.1136C20.1945 82.1136 19.7735 82.1191 19.3471 82.13C18.9317 82.1519 18.6638 82.1683 18.5435 82.1792L18.6747 81.1624ZM27.126 78.4236C27.1588 79.1452 27.3501 79.7083 27.7 80.1128C28.0608 80.5064 28.5473 80.7032 29.1596 80.7032C29.4657 80.7032 29.7664 80.6704 30.0616 80.6048C30.3568 80.5283 30.5973 80.4517 30.7832 80.3752C30.9691 80.2877 31.0893 80.2331 31.144 80.2112L31.2588 80.2604L31.5376 81.0968C31.5376 81.1077 31.3627 81.2225 31.0128 81.4412C30.6739 81.6599 30.2912 81.8621 29.8648 82.048C29.4493 82.2229 29.0667 82.3104 28.7168 82.3104C27.5579 82.3104 26.6449 81.9715 25.978 81.2936C25.322 80.6157 24.994 79.6919 24.994 78.522C24.994 77.7348 25.1635 77.0241 25.5024 76.39C25.8413 75.7559 26.306 75.2584 26.8964 74.8976C27.4868 74.5259 28.1483 74.34 28.8808 74.34C30.7285 74.34 31.6524 75.2803 31.6524 77.1608C31.6524 77.3576 31.636 77.5489 31.6032 77.7348C31.5704 77.9207 31.5485 78.0409 31.5376 78.0956L31.3408 78.276H27.126V78.4236ZM29.3236 77.2428C29.4439 77.2209 29.5259 77.1881 29.5696 77.1444C29.6133 77.1007 29.6352 77.0077 29.6352 76.8656C29.6352 76.0565 29.2908 75.652 28.602 75.652C28.1756 75.652 27.8312 75.7996 27.5688 76.0948C27.3173 76.3791 27.1697 76.8 27.126 77.3576L29.3236 77.2428ZM34.6854 78.4236C34.7182 79.1452 34.9095 79.7083 35.2594 80.1128C35.6202 80.5064 36.1067 80.7032 36.719 80.7032C37.0251 80.7032 37.3258 80.6704 37.621 80.6048C37.9162 80.5283 38.1567 80.4517 38.3426 80.3752C38.5284 80.2877 38.6487 80.2331 38.7034 80.2112L38.8182 80.2604L39.097 81.0968C39.097 81.1077 38.922 81.2225 38.5722 81.4412C38.2332 81.6599 37.8506 81.8621 37.4242 82.048C37.0087 82.2229 36.626 82.3104 36.2762 82.3104C35.1172 82.3104 34.2043 81.9715 33.5374 81.2936C32.8814 80.6157 32.5534 79.6919 32.5534 78.522C32.5534 77.7348 32.7228 77.0241 33.0618 76.39C33.4007 75.7559 33.8654 75.2584 34.4558 74.8976C35.0462 74.5259 35.7076 74.34 36.4402 74.34C38.2879 74.34 39.2118 75.2803 39.2118 77.1608C39.2118 77.3576 39.1954 77.5489 39.1626 77.7348C39.1298 77.9207 39.1079 78.0409 39.097 78.0956L38.9002 78.276H34.6854V78.4236ZM36.883 77.2428C37.0032 77.2209 37.0852 77.1881 37.129 77.1444C37.1727 77.1007 37.1946 77.0077 37.1946 76.8656C37.1946 76.0565 36.8502 75.652 36.1614 75.652C35.735 75.652 35.3906 75.7996 35.1282 76.0948C34.8767 76.3791 34.7291 76.8 34.6854 77.3576L36.883 77.2428ZM40.44 81.1624C40.757 81.1405 40.9702 81.0531 41.0796 80.9C41.1998 80.7469 41.26 80.4627 41.26 80.0472V76.8C41.26 76.4173 41.2108 76.1604 41.1124 76.0292C41.0249 75.898 40.8445 75.8324 40.5712 75.8324L40.2596 75.8488L40.1776 75.734L40.2596 74.8812C40.8609 74.7937 41.4677 74.6899 42.08 74.5696C42.7032 74.4493 43.1022 74.3728 43.2772 74.34L43.4248 74.4876C43.4029 74.5751 43.3701 74.7773 43.3264 75.0944C43.2936 75.4115 43.2717 75.7176 43.2608 76.0128L43.3592 76.0784C43.6981 75.5755 44.0698 75.1819 44.4744 74.8976C44.8898 74.6024 45.2834 74.4548 45.6552 74.4548C45.7864 74.4548 45.9066 74.4657 46.016 74.4876C46.1253 74.4985 46.1964 74.5095 46.2292 74.5204L46.2948 74.6516C46.262 74.8375 46.2073 75.2475 46.1308 75.8816C46.0542 76.5048 45.9996 77.0952 45.9668 77.6528L44.8844 77.7184C44.8844 77.1936 44.8516 76.8492 44.786 76.6852C44.7313 76.5103 44.611 76.4228 44.4252 76.4228C44.2502 76.4228 44.0644 76.4884 43.8676 76.6196C43.6817 76.7399 43.5068 76.9093 43.3428 77.128C43.3209 77.4232 43.2881 77.9207 43.2444 78.6204C43.2116 79.3092 43.1897 79.8613 43.1788 80.2768C43.1788 80.5611 43.2225 80.7579 43.31 80.8672C43.4084 80.9765 43.5778 81.0312 43.8184 81.0312C43.9933 81.0312 44.1628 81.0257 44.3268 81.0148C44.4908 80.9929 44.6001 80.9765 44.6548 80.9656L44.704 81.064L44.5236 82.1792C44.3705 82.1683 44.0808 82.1519 43.6544 82.13C43.2389 82.1191 42.8125 82.1136 42.3752 82.1136C41.9597 82.1136 41.5388 82.1191 41.1124 82.13C40.6969 82.1519 40.429 82.1683 40.3088 82.1792L40.44 81.1624ZM54.6902 82.3104C53.6952 82.3104 52.8315 82.1027 52.099 81.6872C51.3664 81.2717 50.8034 80.6759 50.4098 79.8996C50.0162 79.1124 49.8194 78.1885 49.8194 77.128C49.8194 75.9691 50.0544 74.9577 50.5246 74.094C50.9947 73.2303 51.6616 72.5633 52.5254 72.0932C53.3891 71.6231 54.4004 71.388 55.5594 71.388C55.9639 71.388 56.3958 71.4208 56.855 71.4864C57.3251 71.5411 57.7242 71.6012 58.0522 71.6668C58.3911 71.7324 58.6043 71.7761 58.6918 71.798L58.7902 72.0112C58.7683 72.0877 58.73 72.2681 58.6754 72.5524C58.6207 72.8257 58.5606 73.192 58.495 73.6512C58.4403 74.1104 58.3966 74.5969 58.3638 75.1108L56.7402 75.2256C56.7402 75.1709 56.7456 75.0671 56.7566 74.914C56.7675 74.75 56.773 74.5641 56.773 74.3564C56.773 73.8863 56.6254 73.5419 56.3302 73.3232C56.0459 73.0936 55.5976 72.9788 54.9854 72.9788C54.1326 72.9788 53.482 73.2795 53.0338 73.8808C52.5964 74.4821 52.3778 75.3787 52.3778 76.5704C52.3778 77.9043 52.6183 78.9375 53.0994 79.67C53.5804 80.4025 54.2474 80.7688 55.1002 80.7688C55.6906 80.7688 56.1498 80.5939 56.4778 80.244C56.8058 79.8832 57.0354 79.3037 57.1666 78.5056L58.7902 78.3908C58.7574 78.5876 58.6972 79.0085 58.6098 79.6536C58.5332 80.2877 58.484 80.8891 58.4622 81.4576L58.2982 81.6544C58.2982 81.6653 58.1123 81.7309 57.7406 81.8512C57.3798 81.9605 56.9315 82.0644 56.3958 82.1628C55.86 82.2612 55.2915 82.3104 54.6902 82.3104ZM59.8428 81.228C60.2036 81.1515 60.4278 81.0257 60.5152 80.8508C60.6136 80.6759 60.6628 80.3643 60.6628 79.916V72.3228C60.6628 72.0495 60.6246 71.8417 60.548 71.6996C60.4715 71.5575 60.3567 71.47 60.2036 71.4372C60.1599 71.4263 60.0888 71.4208 59.9904 71.4208L59.5476 71.4372C59.5367 71.3935 59.5312 71.3224 59.5312 71.224L59.6132 70.4696C60.2364 70.3931 60.9034 70.2947 61.614 70.1744C62.3247 70.0541 62.7839 69.9776 62.9916 69.9448L63.1064 70.2564C62.9643 70.4313 62.844 71.4809 62.7456 73.4052C62.6472 75.3185 62.598 77.6419 62.598 80.3752C62.598 80.6485 62.6308 80.8399 62.6964 80.9492C62.773 81.0585 62.8987 81.1132 63.0736 81.1132C63.172 81.1132 63.2759 81.1077 63.3852 81.0968C63.4946 81.0859 63.5711 81.0804 63.6148 81.0804L63.664 81.1788L63.4836 82.1628C63.3524 82.1519 63.101 82.1409 62.7292 82.13C62.3575 82.1191 61.9803 82.1136 61.5976 82.1136C61.2587 82.1136 60.8924 82.13 60.4988 82.1628C60.1052 82.2065 59.8483 82.2393 59.728 82.2612L59.8428 81.228ZM65.0359 76.6032C65.0359 76.3189 64.9921 76.1167 64.9047 75.9964C64.8172 75.8652 64.6751 75.7996 64.4783 75.7996C64.3799 75.7996 64.2924 75.8051 64.2159 75.816C64.1393 75.8269 64.0901 75.8379 64.0683 75.8488L64.1667 74.8812C64.7461 74.7937 65.342 74.6953 65.9543 74.586C66.5775 74.4657 66.982 74.3837 67.1679 74.34L67.3319 74.6188C67.2116 74.8812 67.1077 75.4771 67.0203 76.4064C66.9328 77.3248 66.8891 78.2705 66.8891 79.2436C66.8891 79.6919 66.9711 80.0253 67.1351 80.244C67.2991 80.4627 67.556 80.572 67.9059 80.572C68.1136 80.572 68.3213 80.5228 68.5291 80.4244C68.7368 80.3151 68.9937 80.162 69.2999 79.9652V76.6196C69.2999 76.3025 69.2507 76.0948 69.1523 75.9964C69.0648 75.8871 68.8789 75.8269 68.5947 75.816L68.3159 75.8324L68.4471 74.8812C69.0375 74.7937 69.6497 74.6953 70.2839 74.586C70.918 74.4767 71.328 74.4056 71.5139 74.3728L71.6779 74.6516C71.5576 74.9031 71.4537 75.5427 71.3663 76.5704C71.2788 77.5872 71.2351 78.7079 71.2351 79.9324C71.2351 80.1401 71.2843 80.3041 71.3827 80.4244C71.492 80.5447 71.6341 80.6048 71.8091 80.6048C71.9293 80.6048 72.0441 80.5829 72.1535 80.5392C72.2737 80.4955 72.3667 80.4517 72.4323 80.408C72.5088 80.3643 72.558 80.3369 72.5799 80.326L72.8423 80.6704C72.7985 80.7469 72.6837 80.9055 72.4979 81.146C72.3229 81.3756 72.1097 81.6161 71.8583 81.8676C71.6068 82.1081 71.3608 82.2557 71.1203 82.3104C70.1253 82.3104 69.5677 81.8895 69.4475 81.0476L69.3163 80.982C68.9008 81.3756 68.5236 81.6927 68.1847 81.9332C67.8457 82.1737 67.6161 82.294 67.4959 82.294C66.654 82.294 66.0144 82.1191 65.5771 81.7692C65.1397 81.4084 64.9211 80.8945 64.9211 80.2276L65.0359 76.6032ZM73.9062 76.6524C73.9062 76.3025 73.8461 76.0729 73.7258 75.9636C73.6056 75.8433 73.3705 75.7777 73.0206 75.7668L72.8566 75.652L72.955 74.832C73.3814 74.6352 73.8024 74.4056 74.2178 74.1432C74.6333 73.8808 74.9777 73.6512 75.251 73.4544C75.5244 73.2467 75.6938 73.1155 75.7594 73.0608L76.2186 73.3068C76.2077 73.3724 76.1804 73.5364 76.1366 73.7988C76.1038 74.0503 76.071 74.3619 76.0382 74.7336L77.957 74.6844L78.0226 74.7664L77.8586 75.8816L75.9398 75.8324C75.8742 76.7836 75.8414 77.9644 75.8414 79.3748C75.8414 79.834 75.918 80.1675 76.071 80.3752C76.235 80.5829 76.5029 80.6868 76.8746 80.6868C77.0714 80.6868 77.2792 80.654 77.4978 80.5884C77.7274 80.5119 77.8422 80.4681 77.8422 80.4572L78.0554 80.9984C77.9898 81.064 77.8368 81.2007 77.5962 81.4084C77.3557 81.6161 77.0933 81.8184 76.809 82.0152C76.5248 82.212 76.3061 82.3104 76.153 82.3104C75.3768 82.3104 74.8082 82.1519 74.4474 81.8348C74.0866 81.5068 73.9062 80.9929 73.9062 80.2932V76.6524ZM84.587 81.0804C84.5104 81.146 84.3355 81.2772 84.0622 81.474C83.7888 81.6708 83.4663 81.8621 83.0946 82.048C82.7338 82.2229 82.4058 82.3104 82.1106 82.3104C80.9844 82.3104 80.0988 81.9715 79.4538 81.2936C78.8087 80.6157 78.4862 79.6919 78.4862 78.522C78.4862 77.7129 78.6556 76.9913 78.9946 76.3572C79.3335 75.7231 79.8036 75.2311 80.405 74.8812C81.0172 74.5204 81.7115 74.34 82.4878 74.34C82.8486 74.34 83.182 74.3673 83.4882 74.422C83.8052 74.4657 84.0512 74.5149 84.2262 74.5696C84.412 74.6243 84.5268 74.6625 84.5706 74.6844L84.6362 74.832C84.6252 74.8976 84.5924 75.0507 84.5378 75.2912C84.494 75.5208 84.4448 75.8269 84.3902 76.2096C84.3355 76.5813 84.2972 76.9695 84.2754 77.374L83.2094 77.4396V76.8984C83.2094 76.5267 83.1164 76.2424 82.9306 76.0456C82.7556 75.8379 82.5096 75.734 82.1926 75.734C81.6896 75.734 81.307 75.9199 81.0446 76.2916C80.7822 76.6633 80.651 77.1991 80.651 77.8988C80.651 78.7953 80.804 79.4787 81.1102 79.9488C81.4272 80.4189 81.8755 80.654 82.455 80.654C82.7174 80.654 82.9798 80.6212 83.2422 80.5556C83.5046 80.4791 83.7178 80.4025 83.8818 80.326C84.0458 80.2495 84.1496 80.2003 84.1934 80.1784L84.3246 80.2276L84.587 81.0804ZM85.5487 81.146C85.8439 81.1132 86.0461 81.0367 86.1555 80.9164C86.2757 80.7852 86.3359 80.5665 86.3359 80.2604V72.3228C86.3359 71.9839 86.2867 71.7488 86.1883 71.6176C86.0899 71.4864 85.904 71.4208 85.6307 71.4208H85.2535L85.1879 71.3388L85.2863 70.4696C85.9095 70.3931 86.5764 70.2947 87.2871 70.1744C87.9977 70.0541 88.4569 69.9776 88.6647 69.9448L88.7795 70.2564C88.6701 70.3876 88.5772 70.9397 88.5007 71.9128C88.4241 72.8859 88.364 74.1705 88.3203 75.7668C88.6483 75.4607 89.0364 75.1491 89.4847 74.832C89.9439 74.504 90.2774 74.34 90.4851 74.34C91.2832 74.34 91.8955 74.5259 92.3219 74.8976C92.7483 75.2584 92.9615 75.7832 92.9615 76.472C92.9615 76.7453 92.9123 77.3248 92.8139 78.2104C92.7046 79.3037 92.6499 80.0089 92.6499 80.326C92.6499 80.5993 92.6882 80.7961 92.7647 80.9164C92.8522 81.0367 92.9888 81.0968 93.1747 81.0968L93.6667 81.0804L93.6995 81.146L93.5355 82.1628C93.4043 82.1519 93.1638 82.1409 92.8139 82.13C92.475 82.1191 92.1251 82.1136 91.7643 82.1136C91.5019 82.1136 91.163 82.13 90.7475 82.1628C90.332 82.2065 90.0587 82.2339 89.9275 82.2448L90.0095 81.2116C90.2828 81.146 90.4742 81.0476 90.5835 80.9164C90.7038 80.7743 90.7639 80.5665 90.7639 80.2932L90.8295 77.4888C90.8404 76.5376 90.496 76.062 89.7963 76.062C89.3699 76.062 88.8724 76.2861 88.3039 76.7344C88.282 77.4888 88.2711 78.6969 88.2711 80.3588C88.2711 80.6321 88.3039 80.8235 88.3695 80.9328C88.446 81.0421 88.5717 81.0968 88.7467 81.0968C88.8341 81.0968 88.9161 81.0913 88.9927 81.0804C89.0801 81.0695 89.1348 81.064 89.1567 81.064L89.2059 81.1624L89.0419 82.1628C88.9216 82.1519 88.6865 82.1409 88.3367 82.13C87.9868 82.1191 87.626 82.1136 87.2543 82.1136C86.8279 82.1136 86.4397 82.1191 86.0899 82.13C85.7509 82.1409 85.5268 82.1519 85.4175 82.1628L85.5487 81.146Z" fill="#211EAA"/>
</svg>
